<svg width="180" height="30" viewBox="0 0 180 30" fill="none" xmlns="http://www.w3.org/2000/svg">
<path d="M7.02606 7.07049L15.473 0C16.373 1.14464 17.0455 2.461 17.4523 3.87388C17.8591 5.28676 17.9921 6.76848 17.8437 8.23441C17.6954 9.70034 17.2686 11.1218 16.5877 12.4175C15.9068 13.7132 14.9852 14.8578 13.8755 15.7859L5.42857 22.8531C3.614 20.5408 2.76304 17.5799 3.06257 14.6208C3.36209 11.6616 4.7876 8.94607 7.02606 7.07049Z" fill="#0D0D0D"/>
<path d="M4.21864 29.836C2.82284 29.697 1.43598 29.4751 0.0649339 29.1714C0.0497372 29.168 0.0357908 29.1602 0.0246983 29.1489C0.0136058 29.1377 0.00581747 29.1234 0.00222887 29.1078C-0.00135973 29.0922 -0.000602937 29.0758 0.00441223 29.0606C0.00942739 29.0454 0.0184973 29.032 0.0305792 29.0219C0.0942786 28.9658 0.178734 28.8882 0.283945 28.7893L0.937759 28.2144C1.73329 27.5077 2.92819 26.4598 4.34639 25.2302C4.85742 24.7871 5.39851 24.3119 5.97287 23.8212C8.45715 21.6867 11.373 19.2287 13.9722 17.1451C14.4177 16.7862 14.8654 16.4383 15.2959 16.1116L15.5493 15.9144V15.8989L15.6566 15.8169C16.9899 14.734 18.4015 13.7578 19.879 12.897C19.9134 12.8815 19.9456 12.8494 19.9756 12.8317C20.7013 12.4411 21.5331 12.3136 22.3375 12.4694C22.8445 12.5639 23.3361 12.7317 23.7976 12.9679L26.1885 14.0955C26.3935 14.193 26.3173 14.6339 26.0972 14.6937C25.4708 14.8442 24.903 15.1863 24.4682 15.6753C24.0334 16.1643 23.7517 16.7773 23.6602 17.4342L23.6656 17.2503C23.4626 18.5784 23.102 19.8756 22.592 21.1129C22.4148 21.5404 22.2237 21.9525 22.0187 22.3613C22.0164 22.3611 22.0141 22.3614 22.0119 22.3623C22.0098 22.3631 22.0078 22.3644 22.0062 22.3661C22.0046 22.3678 22.0033 22.3698 22.0025 22.372C22.0017 22.3742 22.0013 22.3766 22.0015 22.379C21.1226 24.0796 19.9193 25.5793 18.464 26.7876C15.4365 29.3354 11.154 30 7.46945 30C6.38398 29.9968 5.29923 29.942 4.21864 29.836Z" fill="#0D0D0D"/>
<path d="M36.5799 19.8027C35.6696 19.755 34.8115 19.3476 34.1837 18.6658C33.5559 17.984 33.2063 17.0793 33.2066 16.1388H36.5348C37.0534 11.6161 39.9699 8.77972 44.6937 8.77972C49.8801 8.77972 52.6984 12.0771 52.6984 18.5273V19.2726H41.4336C41.5699 21.4681 42.8739 23.0631 44.7613 23.0631C45.2959 23.1223 45.8353 23.008 46.3035 22.7353C46.7717 22.4626 47.1454 22.045 47.3724 21.5421H52.4902C52.047 23.2155 51.0633 24.6834 49.702 25.7014C48.3407 26.7195 46.6832 27.2273 45.004 27.1412C39.9957 27.139 37.1865 24.6777 36.5799 19.8027ZM41.5363 16.1886H47.7184C47.582 13.8835 46.3427 12.8568 44.626 12.8568C42.9094 12.8568 41.7081 13.9886 41.5363 16.1908V16.1886Z" fill="#0D0D0D"/>
<path d="M68.1142 15.1933V20.1547C68.1142 23.8401 66.1914 27.1333 61.1767 27.1333C56.0932 27.1333 54.2048 23.9087 54.2048 20.1171V5.18517H59.0821V9.23495H68.1152V12.8494H59.0821V19.901C59.0821 21.7088 59.7348 22.6703 61.2797 22.6703C62.7913 22.6703 63.4773 21.7133 63.4773 19.942V15.1933H68.1142Z" fill="#0D0D0D"/>
<path d="M85.3581 26.6746H80.3444V15.7604C80.3444 13.5993 79.5199 12.8549 77.7678 12.8549C75.8794 12.8549 74.8144 14.131 74.8144 16.1503V26.6735H69.8351V2.85785H74.8155V11.2952C75.2938 10.4643 75.9881 9.78814 76.8198 9.34352C77.6514 8.8989 78.5872 8.70356 79.521 8.77965C82.9565 8.77965 85.3592 10.9762 85.3592 14.2019L85.3581 26.6746Z" fill="#0D0D0D"/>
<path d="M87.3076 26.6761V9.24162H92.2892V26.6761H87.3076ZM88.2632 7.02837V2.87339C88.7921 2.87339 89.3158 2.98037 89.8044 3.18926C90.293 3.39815 90.7369 3.70439 91.1108 4.09035C91.4846 4.47631 91.7814 4.93506 91.9836 5.43929C92.1858 5.94352 92.2895 6.48377 92.2892 7.02945L88.2632 7.02837ZM84.2352 2.87231L88.2632 2.87339V7.02837C87.1954 7.02778 86.1713 6.58941 85.4162 5.81032C84.6612 5.03124 84.2368 3.97518 84.2362 2.87339L84.2352 2.87231Z" fill="#0D0D0D"/>
<path d="M109.673 15.478H104.655C104.574 14.7844 104.242 14.1478 103.727 13.6949C103.211 13.2419 102.55 13.0057 101.873 13.0333C100.263 13.0333 98.8498 14.0967 98.8498 17.6402C98.8498 21.1483 100.258 22.8464 101.736 22.8464C102.084 22.8841 102.436 22.8493 102.771 22.7443C103.105 22.6392 103.417 22.466 103.686 22.2348C103.954 22.0036 104.176 21.7191 104.336 21.3982C104.497 21.0772 104.593 20.7264 104.62 20.3663H109.634C109.393 22.3101 108.448 24.0879 106.99 25.3432C105.531 26.5984 103.667 27.2383 101.77 27.1344C97.1332 27.1344 93.9393 23.9807 93.9393 17.7432C93.9393 11.5057 97.1332 8.77746 101.907 8.77746C106.372 8.78078 109.399 11.3673 109.673 15.478Z" fill="#0D0D0D"/>
<path d="M121.553 19.9797L121.587 18.4909C120.844 18.9838 119.998 19.2875 119.118 19.3771C116.749 19.9088 116.062 20.5823 116.062 21.8218C116.062 22.9206 116.714 23.4834 117.887 23.4834C118.354 23.5191 118.824 23.4551 119.266 23.2954C119.709 23.1356 120.115 22.8835 120.459 22.5548C120.803 22.2261 121.077 21.8278 121.266 21.3848C121.454 20.9417 121.552 20.4634 121.553 19.9797ZM126.532 26.6769H122.17C121.975 26.2043 121.859 25.7009 121.827 25.1881C120.968 26.3224 119.286 27.1366 116.781 27.1366C112.9 27.1366 111.182 25.2225 111.182 22.1043C111.182 17.5682 114.51 16.7175 119.047 16.0119C120.971 15.7283 121.516 15.3384 121.516 14.2396C121.516 13.2426 120.417 12.7154 119.009 12.7154C117.12 12.7154 116.399 13.6015 116.227 14.9119H111.73C111.798 11.2975 113.722 8.78078 119.251 8.78078C124.678 8.78078 126.532 11.2609 126.532 15.6552V26.6769Z" fill="#0D0D0D"/>
<path d="M132.675 26.6746H127.695V2.85892H132.675V26.6746Z" fill="#0D0D0D"/>
<path d="M146.236 26.6746H141.255V2.85892H146.236V26.6746Z" fill="#0D0D0D"/>
<path d="M148.166 26.6761V9.24162H153.144V26.6761H148.166ZM147.93 5.49229C147.93 4.7975 148.198 4.13056 148.674 3.63926C149.15 3.14797 149.795 2.87231 150.469 2.87231C150.802 2.87245 151.132 2.94068 151.44 3.07243C151.748 3.20418 152.028 3.39707 152.263 3.64035C152.499 3.88362 152.685 4.17176 152.812 4.48951C152.94 4.80727 153.005 5.14846 153.005 5.49229C153.005 5.83596 152.94 6.17642 152.812 6.49399C152.685 6.81155 152.498 7.10014 152.263 7.34316C152.027 7.58617 151.747 7.77861 151.44 7.90999C151.132 8.04137 150.802 8.10824 150.469 8.10795C149.796 8.10824 149.15 7.83271 148.674 7.34207C148.198 6.85143 147.931 6.1866 147.93 5.49229Z" fill="#0D0D0D"/>
<path d="M161.769 26.6747H156.892V12.8538H152.898V9.23494H156.892C156.892 4.98246 159.262 2.85677 164.139 2.85677V7.00292C162.113 7.00292 161.769 7.46372 161.769 9.23494H164.239V12.8494H161.769V26.6747Z" fill="#0D0D0D"/>
<path d="M168.835 16.1869H175.016C174.879 13.884 173.642 12.856 171.926 12.856C170.209 12.856 169.006 13.9903 168.835 16.1869ZM180 19.2696H168.732C168.869 21.4662 170.173 23.0613 172.06 23.0613C172.595 23.1201 173.134 23.0047 173.602 22.7314C174.07 22.458 174.443 22.0404 174.67 21.5371H179.787C179.345 23.211 178.361 24.6785 176.999 25.6968C175.638 26.7151 173.98 27.2231 172.3 27.1366C166.598 27.1366 163.748 23.9475 163.748 17.6391C163.748 12.2523 166.77 8.77746 171.991 8.77746C177.178 8.77746 179.994 12.0729 179.994 18.5253L180 19.2696Z" fill="#0D0D0D"/>
</svg>
