<svg width="20" height="18" viewBox="0 0 20 18" fill="none" xmlns="http://www.w3.org/2000/svg">
<path d="M0 1.28571C0 0.575634 0.559644 0 1.25 0H18.75C19.4404 0 20 0.575634 20 1.28571C20 1.99579 19.4404 2.57143 18.75 2.57143H1.25C0.559644 2.57143 0 1.99579 0 1.28571ZM0 6.42857C0 5.71849 0.559644 5.14286 1.25 5.14286H18.75C19.4404 5.14286 20 5.71849 20 6.42857C20 7.13865 19.4404 7.71429 18.75 7.71429H1.25C0.559644 7.71429 0 7.13865 0 6.42857ZM0 11.5714C0 10.8613 0.559644 10.2857 1.25 10.2857H18.75C19.4404 10.2857 20 10.8613 20 11.5714C20 12.2815 19.4404 12.8571 18.75 12.8571H1.25C0.559644 12.8571 0 12.2815 0 11.5714ZM0 16.7143C0 16.0042 0.559644 15.4286 1.25 15.4286H18.75C19.4404 15.4286 20 16.0042 20 16.7143C20 17.4244 19.4404 18 18.75 18H1.25C0.559644 18 0 17.4244 0 16.7143Z" fill="#0D0D0D"/>
</svg>
