<svg width="24" height="25" viewBox="0 0 24 25" fill="none" xmlns="http://www.w3.org/2000/svg">
<path d="M12.2449 4.7347C14.5443 4.7347 16.0953 5.72789 16.9796 6.55783L20.4354 3.18368C18.313 1.21089 15.5511 0 12.2449 0C7.45582 0 3.31976 2.7483 1.30615 6.7483L5.26534 9.82314C6.25854 6.87075 9.00684 4.7347 12.2449 4.7347Z" fill="#EA4335"/>
<path d="M24 12.519C24 11.5122 23.9183 10.7775 23.7415 10.0156H12.2449V14.5598H18.9932C18.8571 15.6891 18.1224 17.3898 16.4898 18.5326L20.3537 21.5258C22.6666 19.3898 24 16.2469 24 12.519Z" fill="#4285F4"/>
<path d="M5.27891 14.6684C5.02041 13.9065 4.87075 13.0901 4.87075 12.2466C4.87075 11.4031 5.02041 10.5867 5.26531 9.82483L1.30612 6.75C0.476191 8.40986 0 10.2738 0 12.2466C0 14.2194 0.476191 16.0833 1.30612 17.7432L5.27891 14.6684Z" fill="#F79E1B"/>
<path d="M12.245 24.4872C15.5511 24.4872 18.3266 23.3988 20.3538 21.5212L16.4899 18.528C15.4559 19.2491 14.0681 19.7525 12.245 19.7525C9.0069 19.7525 6.2586 17.6164 5.27901 14.6641L1.31982 17.7389C3.33343 21.7389 7.45588 24.4872 12.245 24.4872Z" fill="#34A853"/>
</svg>
