<svg width="50" height="50" viewBox="0 0 50 50" fill="none" xmlns="http://www.w3.org/2000/svg">
<rect width="49.4118" height="49.4118" rx="10" fill="#FFCD93"/>
<path fill-rule="evenodd" clip-rule="evenodd" d="M21.303 29.2772C21.6352 29.4492 22.0052 29.5391 22.3807 29.5389C23.6318 29.5389 24.653 28.5619 24.6991 27.3442L24.7037 16.4702H27.467C27.4673 16.7012 27.4892 16.9316 27.5324 17.1587H25.5091V17.159H28.2727C28.2723 18.0691 28.6083 18.9484 29.2183 19.6337L29.2191 19.6345C29.8413 20.0336 30.5686 20.2458 31.3119 20.2451V20.8494C31.572 20.9041 31.841 20.9332 32.1176 20.9332V23.647C30.738 23.6486 29.3929 23.2239 28.2728 22.4331V27.9471C28.2728 30.7004 25.9909 32.9408 23.1861 32.9408C22.4876 32.941 21.7966 32.7995 21.1564 32.5252C20.5167 32.2512 19.9415 31.8504 19.4667 31.3481L19.4657 31.3474C18.154 30.4432 17.2941 28.9478 17.2941 27.2586C17.2941 24.5048 19.576 22.2641 22.3807 22.2641C22.6101 22.2652 22.8391 22.2816 23.0662 22.3131V22.9555C23.0822 22.9552 23.098 22.9547 23.114 22.9542C23.1379 22.9533 23.1619 22.9525 23.1861 22.9525C23.4154 22.9536 23.6444 22.97 23.8715 23.0016V25.7716C23.6548 25.7048 23.4255 25.6659 23.1861 25.6659C22.5701 25.6666 21.9796 25.9072 21.5441 26.3349C21.1086 26.7625 20.8637 27.3423 20.8631 27.947C20.8631 28.4247 21.0169 28.8901 21.3024 29.2769L21.303 29.2772ZM18.4349 29.7289C18.671 30.3328 19.0233 30.8806 19.4646 31.3462C19.0143 30.8732 18.6667 30.323 18.4349 29.7289Z" fill="#F79E1B"/>
</svg>
