<svg width="50" height="50" viewBox="0 0 50 50" fill="none" xmlns="http://www.w3.org/2000/svg">
<rect width="49.4118" height="49.4118" rx="10" fill="#FFCD93"/>
<path d="M28.1623 16.4702H21.2577C18.2585 16.4702 16.4706 18.2573 16.4706 21.2549V28.1479C16.4706 31.1537 18.2585 32.9408 21.2577 32.9408H28.1541C31.1532 32.9408 32.9411 31.1537 32.9411 28.1561V21.2549C32.9494 18.2573 31.1614 16.4702 28.1623 16.4702ZM24.71 27.9008C22.9467 27.9008 21.5131 26.4679 21.5131 24.7055C21.5131 22.9432 22.9467 21.5102 24.71 21.5102C26.4732 21.5102 27.9069 22.9432 27.9069 24.7055C27.9069 26.4679 26.4732 27.9008 24.71 27.9008ZM29.5877 20.489C29.5465 20.5879 29.4888 20.6785 29.4147 20.7608C29.3323 20.8349 29.2416 20.8926 29.1428 20.9337C29.0439 20.9749 28.9368 20.9996 28.8297 20.9996C28.6072 20.9996 28.4012 20.9173 28.2447 20.7608C28.1705 20.6785 28.1129 20.5879 28.0717 20.489C28.0305 20.3902 28.0057 20.2832 28.0057 20.1761C28.0057 20.069 28.0305 19.962 28.0717 19.8632C28.1129 19.7561 28.1705 19.6737 28.2447 19.5914C28.4342 19.402 28.7226 19.3114 28.9862 19.369C29.0439 19.3773 29.0933 19.3937 29.1428 19.4185C29.1922 19.4349 29.2416 19.4596 29.2911 19.4926C29.3323 19.5173 29.3735 19.5584 29.4147 19.5914C29.4888 19.6737 29.5465 19.7561 29.5877 19.8632C29.6289 19.962 29.6536 20.069 29.6536 20.1761C29.6536 20.2832 29.6289 20.3902 29.5877 20.489Z" fill="#F79E1B"/>
</svg>
