<svg width="50" height="50" viewBox="0 0 50 50" fill="none" xmlns="http://www.w3.org/2000/svg">
<rect width="49.4118" height="49.4118" rx="10" fill="#FFCD93"/>
<path d="M31.7094 20.2789C29.2456 16.4701 24.2153 15.3377 20.3143 17.7054C16.516 20.0731 15.2841 25.2202 17.7479 29.029L17.9532 29.3378L17.1319 32.4261L20.2117 31.6026L20.5196 31.8084C21.8542 32.529 23.2914 32.9408 24.7286 32.9408C26.2685 32.9408 27.8084 32.529 29.1429 31.7055C32.9413 29.2349 34.0705 24.1907 31.7094 20.2789ZM29.5536 28.2055C29.1429 28.8231 28.6296 29.2349 27.911 29.3378C27.5004 29.3378 26.9871 29.5437 24.9339 28.7202C23.1888 27.8966 21.7515 26.5584 20.725 25.0143C20.109 24.2937 19.801 23.3672 19.6984 22.4407C19.6984 21.6172 20.0064 20.8966 20.5196 20.3819C20.725 20.176 20.9303 20.0731 21.1356 20.0731H21.6489C21.8542 20.0731 22.0595 20.0731 22.1622 20.4848C22.3675 20.9995 22.8808 22.2348 22.8808 22.3378C22.9834 22.4407 22.9834 22.6466 22.8808 22.7495C22.9834 22.9554 22.8808 23.1613 22.7781 23.2643C22.6755 23.3672 22.5728 23.5731 22.4702 23.676C22.2648 23.779 22.1622 23.9849 22.2648 24.1907C22.6755 24.8084 23.1888 25.426 23.7021 25.9408C24.318 26.4555 24.9339 26.8672 25.6526 27.1761C25.8579 27.279 26.0632 27.279 26.1658 27.0731C26.2685 26.8672 26.7818 26.3525 26.9871 26.1466C27.1924 25.9408 27.2951 25.9408 27.5004 26.0437L29.1429 26.8672C29.3483 26.9702 29.5536 27.0731 29.6562 27.1761C29.7589 27.4849 29.7589 27.8966 29.5536 28.2055Z" fill="#F79E1B"/>
</svg>
